<svg width="137" height="43" viewBox="0 0 137 43" fill="none" xmlns="http://www.w3.org/2000/svg">
<path d="M40.2267 36.1595H10.9289L10.7658 34.8005C10.7507 34.6797 9.5064 24.354 8.92956 19.7876C7.13261 19.3799 5.06385 18.6974 2.78066 17.2387C1.11961 16.1756 0.107883 14.5327 0.00822001 12.7267C-0.0854027 11.0716 0.624318 9.50422 1.95316 8.42605C3.15515 7.45056 4.7407 7.04285 6.30209 7.30861C7.74569 7.55324 8.98392 8.35357 9.69365 9.5012C11.0678 11.724 11.4574 15.04 11.6899 17.0212C11.6929 17.0544 11.699 17.0907 11.702 17.1239C12.8557 17.2175 14.6979 17.2205 16.8482 16.6739C19.4032 16.0246 21.6381 14.8045 23.5015 13.0377C22.1908 11.3797 21.2576 9.73073 20.723 8.12102C20.0646 6.14286 20.0616 4.33383 20.7109 2.88418C21.5324 1.05099 23.3052 0 25.5763 0C27.8474 0 29.6202 1.05099 30.4417 2.88418C31.091 4.33383 31.088 6.14286 30.4296 8.12102C29.895 9.73073 28.9618 11.3797 27.6511 13.0377C29.5145 14.8045 31.7494 16.0246 34.3043 16.6739C36.4547 17.2205 38.2969 17.2175 39.4506 17.1239C39.4536 17.0907 39.4596 17.0575 39.4627 17.0242C39.6952 15.0431 40.0848 11.724 41.462 9.5012C42.1717 8.35357 43.4099 7.55324 44.8535 7.30861C46.4149 7.04285 48.0005 7.45056 49.2025 8.42605C50.5313 9.50422 51.241 11.0716 51.1474 12.7267C51.0447 14.5327 50.036 16.1786 48.3719 17.2387C46.0887 18.6974 44.02 19.3799 42.223 19.7876C41.6492 24.357 40.4019 34.6827 40.3868 34.8005L40.2237 36.1595H40.2267ZM13.6651 33.076H37.4905C37.8228 30.3187 38.5899 24.0127 39.058 20.2437C37.6476 20.3071 35.7298 20.2225 33.5433 19.6668C30.487 18.8907 27.8142 17.432 25.5763 15.3239C23.3384 17.432 20.6656 18.8907 17.6093 19.6668C15.4258 20.2225 13.508 20.3071 12.0946 20.2437C12.5658 24.0127 13.3298 30.3217 13.662 33.076H13.6651ZM45.7897 10.3136C45.6508 10.3136 45.5089 10.3257 45.37 10.3498C44.7992 10.4465 44.331 10.7304 44.0864 11.123C43.2317 12.5062 42.8542 14.7803 42.6368 16.4927C44.1378 16.0578 45.4032 15.4749 46.7139 14.6384C47.5293 14.1159 48.0246 13.3579 48.0699 12.5515C48.1062 11.8871 47.8193 11.274 47.2636 10.821C46.8558 10.4888 46.3334 10.3136 45.7928 10.3136H45.7897ZM5.36586 10.3136C4.82526 10.3136 4.30581 10.4918 3.89507 10.821C3.33636 11.274 3.04945 11.8871 3.08871 12.5515C3.13401 13.3548 3.62931 14.1159 4.44473 14.6384C5.75545 15.4749 7.02087 16.0578 8.52185 16.4927C8.3044 14.7773 7.92689 12.5032 7.07221 11.123C6.82758 10.7274 6.35947 10.4465 5.78867 10.3498C5.64673 10.3257 5.5078 10.3136 5.36888 10.3136H5.36586ZM25.5793 3.08351C24.5344 3.08351 23.8458 3.43988 23.5287 4.14356C22.7948 5.78045 23.9152 8.38377 25.5793 10.6549C27.2434 8.38377 28.3638 5.77743 27.63 4.14356C27.3128 3.43988 26.6243 3.08351 25.5793 3.08351" fill="#0FA7E6"/>
<path d="M40.3418 39.916H10.8174V42.9995H40.3418V39.916Z" fill="#0FA7E6"/>
<path d="M64.027 35L72.289 15.83H75.772L84.061 35H79.957L78.094 30.626H69.913L68.077 35H64.027ZM74.017 20.987L71.371 27.197H76.636L74.017 20.987ZM86.1984 35V15.83H90.1134V31.274H98.3214V35H86.1984ZM107.997 35.324C105.675 35.324 103.794 34.604 102.354 33.164C100.914 31.724 100.194 29.816 100.194 27.44V15.83H104.109V27.494C104.109 28.754 104.46 29.744 105.162 30.464C105.864 31.184 106.809 31.544 107.997 31.544C109.185 31.544 110.13 31.184 110.832 30.464C111.534 29.744 111.885 28.754 111.885 27.494V15.83H115.8V27.44C115.8 29.798 115.071 31.706 113.613 33.164C112.155 34.604 110.283 35.324 107.997 35.324ZM122.138 35H117.548L124.757 25.307L117.953 15.83H122.489L127.106 22.283L131.75 15.83H136.286L129.455 25.307L136.691 35H132.101L127.106 28.358L122.138 35Z" fill="#0FA7E6"/>
</svg>
